<svg width="193" height="52" viewBox="0 0 193 52" fill="none" xmlns="http://www.w3.org/2000/svg">
<g clip-path="url(#clip0_46_204)">
<path d="M46.23 13.1215L45.1624 11.2568C44.8032 10.632 43.9521 10.5188 43.4404 11.0256L41.005 13.461C40.636 13.83 40.5819 14.4056 40.8672 14.8385C41.7578 16.2014 42.4712 17.6675 42.9878 19.2075H42.9927C43.652 21.1607 43.9964 23.232 43.9964 25.3181C43.9964 35.8666 35.411 44.452 24.8625 44.452C21.6891 44.452 18.6387 43.6894 15.8933 42.2281L20.0212 38.1003C21.5612 38.6858 23.2044 38.9859 24.8625 38.9859C32.3999 38.9859 38.5302 32.8556 38.5302 25.3181C38.5302 24.8458 38.5007 24.3735 38.4515 23.9061C38.2892 22.3218 37.8513 20.7868 37.1625 19.3649C36.8328 18.686 35.9374 18.5334 35.4011 19.0648L32.9264 21.5396C32.6607 21.8052 32.5475 22.1939 32.6361 22.5629L32.8427 23.4485C32.9854 24.0684 33.0592 24.6982 33.0592 25.323C33.0592 29.8445 29.379 33.5247 24.8576 33.5247C23.4357 33.5247 22.0286 33.1508 20.7986 32.4472L19.7112 31.8224C19.2832 31.5764 18.742 31.6502 18.3927 31.9995L8.31164 42.0806C7.84424 42.548 7.89344 43.3204 8.41988 43.7189L9.90572 44.8554C14.2304 48.1715 19.4013 49.923 24.8576 49.923C38.422 49.923 49.4576 38.8875 49.4576 25.323C49.4576 21.0426 48.3407 16.8213 46.2202 13.1215H46.23ZM39.8193 5.79074C35.4946 2.47466 30.3237 0.723145 24.8674 0.723145C11.303 0.723145 0.267448 11.7587 0.267448 25.3232C0.267448 29.6085 1.38429 33.8249 3.50481 37.5248L4.57245 39.3895C4.93161 40.0143 5.78277 40.1274 6.29445 39.6207L8.72985 37.1853C9.09885 36.8163 9.15297 36.2407 8.86761 35.8077C7.97709 34.4448 7.26369 32.9787 6.74709 31.4387H6.74217C6.08289 29.4855 5.73849 27.4142 5.73849 25.3281C5.73357 14.7747 14.3189 6.18926 24.8674 6.18926C28.0408 6.18926 31.0912 6.95186 33.8366 8.4131L29.7087 12.541C28.1687 11.9555 26.5254 11.6554 24.8674 11.6554C17.33 11.6554 11.1997 17.7857 11.1997 25.3232C11.1997 25.5495 11.2587 26.5876 11.2784 26.7647C11.4457 28.3342 11.8836 29.8643 12.5675 31.2764C12.8971 31.9553 13.7925 32.1078 14.3288 31.5765L16.7986 29.1066C17.0643 28.841 17.1774 28.4523 17.0889 28.0833L16.8822 27.1977C16.7396 26.5778 16.6658 25.948 16.6658 25.3232C16.6658 20.8017 20.3459 17.1215 24.8674 17.1215C26.2893 17.1215 27.6964 17.4954 28.9264 18.199L30.0137 18.8238C30.4418 19.0698 30.983 18.996 31.3323 18.6467L41.4134 8.56562C41.8808 8.09822 41.8316 7.32578 41.3051 6.92726L39.8193 5.79074ZM81.2555 32.1077C80.8865 31.7978 80.3798 31.8125 79.9616 32.1372C78.3773 33.3623 76.5471 34.4988 73.8657 34.4988C68.9604 34.4988 64.9703 30.366 64.9703 25.2837C64.9703 20.2013 68.9457 16.0341 73.8312 16.0341C75.9567 16.0341 78.2445 16.9246 79.932 18.4055C80.2371 18.7106 80.5175 18.7598 80.6996 18.7499C80.8668 18.7401 81.1079 18.6663 81.3293 18.3908L82.9234 16.7475C83.13 16.5359 83.2432 16.2653 83.2334 15.9849C83.2235 15.7044 83.0956 15.4388 82.8693 15.2321C80.0895 12.8066 77.29 11.7242 73.7919 11.7242C66.3233 11.7242 60.2471 17.8397 60.2471 25.3526C60.2471 32.8654 66.3233 38.9072 73.7919 38.9072C77.3048 38.9072 80.4634 37.6378 82.9234 35.2368C83.135 35.0253 83.253 34.7202 83.2432 34.4201C83.2334 34.1594 83.13 33.9281 82.9578 33.7756L81.2555 32.0979V32.1077ZM92.8667 12.0981H90.451C89.9049 12.0981 89.4276 12.5802 89.4276 13.1264V37.5197C89.4276 38.0658 89.9049 38.548 90.451 38.548H92.8667C93.4128 38.548 93.8901 38.0658 93.8901 37.5197V13.1264C93.8901 12.5802 93.4128 12.0981 92.8667 12.0981ZM121.462 20.3145C121.462 15.7832 117.732 12.0981 113.152 12.0981H103.194C102.628 12.0981 102.17 12.5606 102.17 13.1264V37.5197C102.17 38.0855 102.633 38.548 103.194 38.548H105.575C106.121 38.548 106.598 38.0658 106.598 37.5197V28.4522H111.592L116.37 38.0314C116.493 38.2774 116.822 38.5431 117.25 38.5431H120.104C120.497 38.5431 120.827 38.366 121.009 38.056C121.196 37.7411 121.201 37.3328 121.014 36.9883L116.168 27.9454C119.44 26.4891 121.457 23.5912 121.457 20.3046L121.462 20.3145ZM116.994 20.3883C116.994 22.6859 115.1 24.6293 112.857 24.6293H106.667V16.3293H112.857C115.1 16.3293 116.994 18.1841 116.994 20.3834V20.3883ZM147.479 32.1077C147.11 31.7978 146.603 31.8125 146.185 32.1372C144.601 33.3623 142.77 34.4988 140.088 34.4988C135.184 34.4988 131.194 30.366 131.194 25.2837C131.194 20.2013 135.169 16.0341 140.054 16.0341C142.179 16.0341 144.467 16.9246 146.155 18.4055C146.46 18.7106 146.741 18.7598 146.923 18.7499C147.09 18.7401 147.332 18.6663 147.553 18.3908L149.147 16.7475C149.353 16.5359 149.467 16.2653 149.457 15.9849C149.447 15.7044 149.319 15.4388 149.092 15.2321C146.312 12.8066 143.513 11.7242 140.015 11.7242C132.547 11.7242 126.47 17.8397 126.47 25.3526C126.47 32.8654 132.547 38.9072 140.015 38.9072C143.528 38.9072 146.687 37.6378 149.147 35.2368C149.359 35.0253 149.476 34.7202 149.467 34.4201C149.457 34.1594 149.353 33.9281 149.181 33.7756L147.479 32.0979V32.1077ZM169.712 34.4644H160.124V13.1264C160.124 12.5802 159.645 12.0981 159.1 12.0981H156.684C156.118 12.0981 155.66 12.5606 155.66 13.1264V37.5197C155.66 38.0855 156.124 38.548 156.684 38.548H169.718C170.284 38.548 170.746 38.0855 170.746 37.5197V35.4927C170.746 34.9269 170.284 34.4644 169.718 34.4644H169.712ZM191.419 16.2212C191.985 16.2212 192.443 15.7587 192.443 15.1929V13.1314C192.443 12.5656 191.981 12.1031 191.419 12.1031H176.773C176.207 12.1031 175.749 12.5656 175.749 13.1314V37.5248C175.749 38.0906 176.212 38.5531 176.773 38.5531H191.419C191.985 38.5531 192.443 38.0906 192.443 37.5248V35.4977C192.443 34.9319 191.981 34.4694 191.419 34.4694H180.182V27.2075H189.629C190.195 27.2075 190.652 26.745 190.652 26.1792V24.1178C190.652 23.5716 190.174 23.0895 189.629 23.0895H180.182V16.231H191.419V16.2212Z" fill="#777777"/>
</g>
<defs>
<clipPath id="clip0_46_204">
<rect width="192.7" height="50.5667" fill="white" transform="translate(0.150024 0.716553)"/>
</clipPath>
</defs>
</svg>
