<svg width="132" height="62" viewBox="0 0 132 62" fill="none" xmlns="http://www.w3.org/2000/svg">
<g clip-path="url(#clip0_46_188)">
<path d="M55.9842 33.6106C55.9842 39.681 51.1655 44.1542 45.2519 44.1542C39.3382 44.1542 34.5195 39.681 34.5195 33.6106C34.5195 27.4975 39.3382 23.0671 45.2519 23.0671C51.1655 23.0671 55.9842 27.4975 55.9842 33.6106ZM51.2862 33.6106C51.2862 29.8172 48.4933 27.2217 45.2519 27.2217C42.0105 27.2217 39.2177 29.8172 39.2177 33.6106C39.2177 37.366 42.0105 39.9995 45.2519 39.9995C48.4933 39.9995 51.2862 37.3612 51.2862 33.6106ZM79.1375 33.6106C79.1375 39.681 74.3187 44.1542 68.405 44.1542C62.4915 44.1542 57.6728 39.681 57.6728 33.6106C57.6728 27.5022 62.4915 23.0671 68.405 23.0671C74.3187 23.0671 79.1375 27.4975 79.1375 33.6106ZM74.4393 33.6106C74.4393 29.8172 71.6465 27.2217 68.405 27.2217C65.1637 27.2217 62.3708 29.8172 62.3708 33.6106C62.3708 37.366 65.1637 39.9995 68.405 39.9995C71.6465 39.9995 74.4393 37.3612 74.4393 33.6106ZM101.325 23.7041V42.633C101.325 50.4194 96.6654 53.5996 91.1569 53.5996C85.9716 53.5996 82.8508 50.1817 81.6739 47.3866L85.7643 45.7086C86.4926 47.4246 88.2773 49.4498 91.1521 49.4498C94.6781 49.4498 96.8631 47.3059 96.8631 43.27V41.7536H96.6991C95.6476 43.0323 93.6218 44.1494 91.0653 44.1494C85.7161 44.1494 80.8153 39.5574 80.8153 33.6486C80.8153 27.6971 85.7161 23.0671 91.0653 23.0671C93.6169 23.0671 95.6428 24.1842 96.6991 25.4248H96.8631V23.7089H101.325V23.7041ZM97.1961 33.6486C97.1961 29.9361 94.6829 27.2217 91.4849 27.2217C88.2436 27.2217 85.5279 29.9361 85.5279 33.6486C85.5279 37.3232 88.2436 39.9995 91.4849 39.9995C94.6829 39.9995 97.1961 37.3232 97.1961 33.6486ZM108.679 12.6089V43.5075H104.097V12.6089H108.679ZM126.536 37.0802L130.183 39.476C129.006 41.1921 126.17 44.1489 121.269 44.1489C115.191 44.1489 110.653 39.5187 110.653 33.6053C110.653 27.3353 115.23 23.0617 120.743 23.0617C126.295 23.0617 129.011 27.4161 129.898 29.7691L130.386 30.9671L116.084 36.8045C117.179 38.9199 118.881 39.9988 121.269 39.9988C123.662 39.9988 125.321 38.8391 126.536 37.0802ZM115.312 33.2867L124.872 29.3745C124.347 28.0579 122.764 27.1404 120.903 27.1404C118.515 27.1404 115.191 29.2178 115.312 33.2867ZM17.1694 30.8691V26.3959H32.4649C32.6144 27.1755 32.6915 28.0976 32.6915 29.096C32.6915 32.452 31.7606 36.6019 28.7604 39.5586C25.8421 42.5534 22.1135 44.1506 17.1742 44.1506C8.01921 44.1506 0.320862 36.8015 0.320862 27.7792C0.320862 18.7569 8.01921 11.4077 17.1742 11.4077C22.2389 11.4077 25.8469 13.3662 28.5577 15.9189L25.3549 19.0753C23.411 17.2784 20.7774 15.8809 17.1694 15.8809C10.484 15.8809 5.25533 21.1906 5.25533 27.7792C5.25533 34.3678 10.484 39.6775 17.1694 39.6775C21.5057 39.6775 23.9754 37.9614 25.5575 36.4023C26.8406 35.1378 27.6847 33.3314 28.0175 30.8643L17.1694 30.8691Z" fill="#777777"/>
</g>
<defs>
<clipPath id="clip0_46_188">
<rect width="131.2" height="60.1333" fill="white" transform="translate(0.150024 0.93335)"/>
</clipPath>
</defs>
</svg>
