<svg width="136" height="44" viewBox="0 0 136 44" fill="none" xmlns="http://www.w3.org/2000/svg">
<g clip-path="url(#clip0_46_190)">
<path d="M10.3604 10.9823H11.911V34.4737C11.911 39.6751 7.84322 43.1848 0.0166626 43.1848V38.2451C3.37726 38.2451 5.05625 36.8588 5.05625 34.0399V10.9823H10.3604ZM5.80799 7.16722C5.45104 6.82591 5.16736 6.41806 4.97366 5.96767C4.77997 5.51726 4.68018 5.03343 4.68018 4.54466C4.68018 4.05588 4.77997 3.57204 4.97366 3.12164C5.16736 2.67123 5.45104 2.26339 5.80799 1.92209C6.15619 1.5722 6.5723 1.29415 7.03183 1.1043C7.49136 0.914456 7.98497 0.81665 8.48366 0.81665C8.98232 0.81665 9.47595 0.914456 9.93545 1.1043C10.395 1.29415 10.8111 1.5722 11.1593 1.92209C11.5163 2.26339 11.8 2.67123 11.9936 3.12164C12.1873 3.57204 12.2871 4.05588 12.2871 4.54466C12.2871 5.03343 12.1873 5.51726 11.9936 5.96767C11.8 6.41806 11.5163 6.82591 11.1593 7.16722C10.8111 7.5171 10.395 7.79517 9.93545 7.98499C9.47595 8.17485 8.98232 8.27265 8.48366 8.27265C7.98497 8.27265 7.49136 8.17485 7.03183 7.98499C6.5723 7.79517 6.15619 7.5171 5.80799 7.16722ZM31.757 10.9812H38.6119V33.2146H31.757V29.9644C30.7192 31.1463 29.4286 32.0895 27.9768 32.7272C26.5248 33.3649 24.9475 33.6812 23.3569 33.6537C18.2256 33.6537 14.8204 30.5343 14.8204 24.6833V10.9864H21.6778V22.1263C21.6778 25.9771 23.2258 27.9335 26.3665 27.9335C29.3735 27.9335 31.7597 25.6357 31.7597 21.0838L31.757 10.9812ZM81.3827 19.5347V33.2289H74.5305V21.8734C74.5305 18.1457 73.0706 16.2825 70.1509 16.2843C67.322 16.2843 64.8886 18.6232 64.8886 23.1316V33.2289H58.0337V21.8734C58.0337 18.1457 56.5749 16.2825 53.657 16.2843C50.8281 16.2843 48.3948 18.6232 48.3948 23.1316V33.2289H41.5398V10.9955H48.3948V14.2022C50.65 11.776 53.3034 10.5616 56.4439 10.5616C60.4227 10.5616 62.9923 12.079 64.1814 15.1136C66.6157 12.0704 69.5345 10.5488 72.9379 10.5488C78.2001 10.5488 81.3827 13.3216 81.3827 19.5347ZM106.865 13.5821C109.075 15.6617 110.181 18.4779 110.181 22.0775C110.181 25.6769 109.075 28.4959 106.865 30.5292C104.654 32.6087 101.867 33.6486 98.4619 33.6486C95.455 33.6486 93.0224 32.6952 91.1645 30.7886V42.7525H84.3123V10.9813H91.1645V13.3715C93.0224 11.4665 95.455 10.5132 98.4619 10.5115C101.867 10.5038 104.654 11.5436 106.865 13.5821ZM103.017 22.0775C103.017 18.0904 100.497 15.446 97.0921 15.446C93.7313 15.446 91.1645 17.9594 91.1645 22.0775C91.1645 26.1955 93.7313 28.709 97.0921 28.709C100.497 28.709 103.017 26.0647 103.017 22.0775ZM134.493 27.069V32.3195H113.066V27.069H134.493Z" fill="#777777"/>
</g>
<defs>
<clipPath id="clip0_46_190">
<rect width="135.3" height="42.3667" fill="white" transform="translate(0.0166626 0.81665)"/>
</clipPath>
</defs>
</svg>
