<svg width="148" height="32" viewBox="0 0 148 32" fill="none" xmlns="http://www.w3.org/2000/svg">
<g clip-path="url(#clip0_46_192)">
<path d="M5.77447 20.6985C5.77447 22.3922 6.14623 23.6925 6.63214 24.4792C7.26921 25.5097 8.21941 25.9462 9.18813 25.9462C10.4376 25.9462 11.5806 25.6361 13.7834 22.5896C15.548 20.1478 17.6274 16.7202 19.0265 14.5714L21.3959 10.931C23.0417 8.40282 24.9467 5.5923 27.131 3.68726C28.9142 2.13238 30.8378 1.26855 32.7736 1.26855C36.0237 1.26855 39.1196 3.15201 41.489 6.68443C44.082 10.5531 45.3407 15.426 45.3407 20.4548C45.3407 23.4442 44.7515 25.6407 43.7488 27.3761C42.7801 29.0544 40.8921 30.7311 37.7159 30.7311V25.9462C40.4355 25.9462 41.1141 23.4472 41.1141 20.5873C41.1141 16.5119 40.164 11.9892 38.0707 8.75761C36.5853 6.46538 34.6602 5.06475 32.5423 5.06475C30.2516 5.06475 28.4082 6.79241 26.3366 9.87287C25.2352 11.5095 24.1046 13.504 22.835 15.7545L21.4374 18.2304C18.63 23.2082 17.9189 24.342 16.5152 26.2131C14.0549 29.4894 11.9539 30.7311 9.18813 30.7311C5.90714 30.7311 3.83241 29.3105 2.54747 27.1695C1.49855 25.4248 0.983337 23.1356 0.983337 20.5272L5.77447 20.6985Z" fill="#777777"/>
<path d="M4.76035 7.02224C6.95693 3.63635 10.1269 1.26855 13.7626 1.26855C15.8682 1.26855 17.9614 1.89174 20.1473 3.67647C22.5381 5.62778 25.0864 8.84091 28.2657 14.1364L29.4056 16.0369C32.1575 20.6214 33.7232 22.9798 34.6394 24.092C35.8179 25.5205 36.6432 25.9462 37.7152 25.9462C40.4348 25.9462 41.1134 23.4472 41.1134 20.5873L45.3401 20.4548C45.3401 23.4442 44.7508 25.6407 43.7481 27.3761C42.7794 29.0544 40.8914 30.7311 37.7152 30.7311C35.7408 30.7311 33.9916 30.3023 32.0572 28.4775C30.5702 27.0768 28.8318 24.5888 27.4943 22.3521L23.5161 15.7068C21.5201 12.3718 19.689 9.88521 18.6293 8.75915C17.4894 7.54825 16.024 6.08593 13.6855 6.08593C11.7928 6.08593 10.1855 7.41405 8.84038 9.44558L4.76035 7.02224Z" fill="#777777"/>
<path d="M13.6862 6.08593C11.7935 6.08593 10.1862 7.41405 8.84106 9.44558C6.93911 12.3163 5.77447 16.5922 5.77447 20.6985C5.77447 22.3922 6.14623 23.6925 6.63214 24.4792L2.54747 27.1695C1.49855 25.4248 0.983337 23.1356 0.983337 20.5272C0.983337 15.7839 2.28524 10.84 4.76102 7.02224C6.95761 3.63635 10.1275 1.26855 13.7633 1.26855L13.6862 6.08593ZM54.6544 2.20013H60.1968L69.6201 19.2483L79.045 2.20013H84.4671V30.2128H79.9459V8.7436L71.681 23.6107H67.439L59.1756 8.7436V30.2128H54.6544V2.20013ZM98.6339 12.6447C95.3914 12.6447 93.4386 15.085 92.9712 18.1068H103.976C103.749 14.994 101.953 12.6447 98.6339 12.6447ZM88.4885 19.8283C88.4885 13.47 92.5978 8.84233 98.7126 8.84233C104.727 8.84233 108.318 13.4113 108.318 20.1676V21.4094H92.9712C93.5157 24.6966 95.6969 26.9117 99.2139 26.9117C102.02 26.9117 103.774 26.0555 105.436 24.4899L107.838 27.4315C105.575 29.5124 102.697 30.7126 99.0534 30.7126C92.4344 30.7126 88.4885 25.8859 88.4885 19.8283ZM113.8 13.0458H109.638V9.34365H113.8V3.2213H118.162V9.34365H124.485V13.0458H118.162V22.4291C118.162 25.6329 119.187 26.7714 121.704 26.7714C122.853 26.7714 123.512 26.6726 124.485 26.5106V30.1726C123.273 30.5151 122.116 30.6724 120.864 30.6724C116.154 30.6724 113.8 28.0995 113.8 22.9489V13.0458ZM142.854 16.646C141.978 14.4341 140.024 12.8051 137.151 12.8051C133.418 12.8051 131.029 15.4537 131.029 19.7682C131.029 23.9746 133.228 26.7513 136.972 26.7513C139.916 26.7513 142.017 25.039 142.854 22.9088V16.646ZM147.217 30.2128H142.934V27.2911C141.738 29.0111 139.559 30.7126 136.031 30.7126C130.358 30.7126 126.566 25.963 126.566 19.7682C126.566 13.5147 130.449 8.84233 136.272 8.84233C139.151 8.84233 141.408 9.99306 142.934 12.0246V9.34365H147.217V30.2128Z" fill="#777777"/>
</g>
<defs>
<clipPath id="clip0_46_192">
<rect width="146.233" height="31.4333" fill="white" transform="translate(0.983337 0.283447)"/>
</clipPath>
</defs>
</svg>
