<svg width="108" height="82" viewBox="0 0 108 82" fill="none" xmlns="http://www.w3.org/2000/svg">
<g clip-path="url(#clip0_46_196)">
<path fill-rule="evenodd" clip-rule="evenodd" d="M106.844 45.0641H92.5238C92.8614 48.5045 95.3665 49.6097 98.2091 49.6097C101.123 49.6097 103.468 48.9501 105.405 47.9162V53.8345C102.947 55.2533 100.135 55.9339 97.303 55.7954C90.1786 55.7954 85.1684 51.3388 85.1684 42.4614C85.1684 34.9923 89.4146 29.0562 96.3614 29.0562C103.326 29.0562 106.95 34.9032 106.95 42.4258C106.95 43.1388 106.879 44.6719 106.844 45.0641ZM96.3259 35.0458C94.4959 35.0458 92.4705 36.3471 92.4705 39.6449H100.021C100.021 36.3471 98.1203 35.0458 96.3259 35.0458ZM73.6378 55.7954C71.0794 55.7954 69.516 54.7258 68.4855 53.9414L68.45 62.1949L61.1301 63.7458V29.5375H67.8104L67.9525 31.3558C69.5019 29.8812 71.5556 29.0582 73.6911 29.0562C78.8435 29.0562 83.676 33.691 83.676 42.2475C83.676 51.5706 78.879 55.7954 73.6378 55.7954ZM71.95 35.5627C70.2622 35.5627 69.2139 36.1688 68.45 37.0067L68.4855 47.9162C69.1962 48.7006 70.2266 49.3067 71.95 49.3067C74.6505 49.3067 76.4627 46.3654 76.4627 42.408C76.4627 38.5754 74.615 35.5627 71.95 35.5627ZM51.0564 29.5375H58.394V55.2784H51.0564V29.5375ZM51.0564 21.1593L58.394 19.6084V25.598L51.0564 27.1667V21.1593ZM43.3812 37.8267V55.2784H36.0613V29.5375H42.635L42.8482 31.7123C44.6249 28.5571 48.3026 29.1988 49.2797 29.5375V36.2936C48.3559 35.9906 45.2112 35.5271 43.3812 37.8267ZM28.1907 46.2406C28.1907 50.5723 32.81 49.2354 33.7339 48.8432V54.8327C32.7567 55.3675 30.9978 55.7954 28.5993 55.7954C27.5996 55.8246 26.6045 55.6495 25.6744 55.2807C24.7443 54.9119 23.8988 54.3571 23.1892 53.6502C22.4794 52.9432 21.9207 52.0986 21.5465 51.1681C21.1723 50.2375 20.9909 49.2403 21.013 48.2371L21.0307 24.7601L28.1729 23.2271V29.5375H33.7517V35.8301H28.1907V46.2584V46.2406ZM19.4673 47.4884C19.4673 52.7827 15.3632 55.7954 9.28696 55.7954C6.56035 55.7932 3.86325 55.229 1.36303 54.1375V47.1319C3.81483 48.4688 6.8707 49.4671 9.28696 49.4671C10.9215 49.4671 12.0053 49.0393 12.0053 47.6845C12.0053 44.1549 0.883331 45.4741 0.883331 37.3454C0.883331 32.158 4.93413 29.0562 10.8682 29.0562C13.2845 29.0562 15.7007 29.4127 18.1348 30.3932V37.3097C15.8854 36.122 13.3917 35.475 10.8504 35.4201C9.3225 35.4201 8.29203 35.8658 8.29203 37.0245C8.29203 40.3223 19.4673 38.7536 19.4673 47.5062V47.4884Z" fill="#777777"/>
</g>
<defs>
<clipPath id="clip0_46_196">
<rect width="106.6" height="82" fill="white" transform="translate(0.883362)"/>
</clipPath>
</defs>
</svg>
