<svg width="150" height="150" viewBox="0 0 150 150" fill="none" xmlns="http://www.w3.org/2000/svg">
<g clip-path="url(#clip0_51_103)">
<g filter="url(#filter0_d_51_103)">
<path d="M75 131.25C106.066 131.25 131.25 106.066 131.25 75C131.25 43.934 106.066 18.75 75 18.75C43.934 18.75 18.75 43.934 18.75 75C18.75 106.066 43.934 131.25 75 131.25Z" stroke="white" stroke-width="2" stroke-linecap="round" stroke-linejoin="round"/>
<path d="M56.25 100H75H81.25C85.4169 100 93.75 97.5 93.75 87.5C93.75 77.5 85.4169 75 81.25 75H68.75C64.5831 75 56.25 72.5 56.25 62.5C56.25 52.5 64.5831 50 68.75 50H75H93.75" stroke="white" stroke-width="2" stroke-linecap="round" stroke-linejoin="round"/>
<path d="M75 100V112.5" stroke="white" stroke-width="2" stroke-linecap="round" stroke-linejoin="round"/>
<path d="M75 50V37.5" stroke="white" stroke-width="2" stroke-linecap="round" stroke-linejoin="round"/>
</g>
</g>
<defs>
<filter id="filter0_d_51_103" x="1.75" y="5.75" width="146.5" height="146.5" filterUnits="userSpaceOnUse" color-interpolation-filters="sRGB">
<feFlood flood-opacity="0" result="BackgroundImageFix"/>
<feColorMatrix in="SourceAlpha" type="matrix" values="0 0 0 0 0 0 0 0 0 0 0 0 0 0 0 0 0 0 127 0" result="hardAlpha"/>
<feOffset dy="4"/>
<feGaussianBlur stdDeviation="8"/>
<feComposite in2="hardAlpha" operator="out"/>
<feColorMatrix type="matrix" values="0 0 0 0 0.596078 0 0 0 0 0.176471 0 0 0 0 0.27451 0 0 0 1 0"/>
<feBlend mode="normal" in2="BackgroundImageFix" result="effect1_dropShadow_51_103"/>
<feBlend mode="normal" in="SourceGraphic" in2="effect1_dropShadow_51_103" result="shape"/>
</filter>
<clipPath id="clip0_51_103">
<rect width="150" height="150" fill="white"/>
</clipPath>
</defs>
</svg>
